<?xml version="1.0" encoding="UTF-8"?><svg id="Layer_2" xmlns="http://www.w3.org/2000/svg" viewBox="0 0 1562.86 317.34"><defs><style>.cls-1{fill:#fff;}</style></defs><g id="Layer_1-2"><path d="m1562.86,190.42l-.74-36.66c-1.06-52.42-45.14-90.46-104.82-90.46-33.13,0-61.33,11.15-80.25,29.67-19.49-18.57-47.31-29.83-79.2-29.83-37.16,0-69.22,14.89-92.01,40.04-19.97-25.09-51.1-40.04-88.65-40.04-27.77,0-52.97,8.43-73.65,23.17-17.73-50.61-64.27-82.19-126.73-82.19h-300.63l-8.94,42.04C582.98,17.67,545.19,0,501.18,0c-37.89,0-71.23,9.67-98.38,27.14l4.9-23.03h-152.83l-38.54,71.61-9.42-71.61H65.55L0,313.23h341.93l10.47-49.19c24.67,33.24,65.44,53.3,115.24,53.3,32.38,0,62.05-8.19,86.74-22.67l-3.95,18.56h146.2l17.76-84.01h47.16l-17.82,84.01h144.81c44.87,0,85.4-16.97,114.82-47.84,19.07,31.8,53.56,51.3,96.42,51.3,36.91,0,69.3-14.91,92.54-39.71,19.44,25.03,50.21,39.71,88.12,39.71,30.46,0,58.14-10.78,79.02-29.09,19.71,18.29,48.49,29.09,82.4,29.09,62.84,0,108.44-38.9,108.44-92.5,0-13.27-2.68-24.41-7.04-33.77h19.61Z"/><path class="cls-1" d="m40.52,266.51L90.82,29.27h80.72l19.56,148.79h1.32L272.5,29.27h86.97l-50.47,237.24h-61.65l32.06-149.28h-1.97l-82.53,149.28h-40.12l-19.73-149.28h-1.32l-31.73,149.28h-61.49Z"/><path class="cls-1" d="m527.91,118.21c0-20.88-16.44-36.99-37.81-36.99-34.86,0-59.52,35.51-59.52,85.66,0,29.1,14.47,47.02,38.14,47.02s41.6-14.63,48.5-38.14h67.57c-8.22,56.72-56.89,94.86-121,94.86s-105.06-39.13-105.06-99.47c0-88.95,54.09-145.99,138.6-145.99,57.38,0,98.81,37.32,98.81,89.11,0,4.11-.33,7.89-.82,10.52h-67.57c.16-.99.16-1.65.16-6.58Z"/><path class="cls-1" d="m590.97,266.51l50.47-237.24h166.55l-11.84,55.24h-93.88l-9.7,45.71h84.83l-11.34,52.28h-84.67l-17.76,84.01h-72.67Z"/><path class="cls-1" d="m912.98,29.27c60.5,0,98.64,35.02,98.64,94.53,0,84.01-51.46,142.71-126.93,142.71h-100.45l50.31-237.24h78.42Zm-78.26,200.74h45.21c51.29,0,87.96-40.77,87.96-100.78,0-40.94-22.03-63.63-63.63-63.63h-34.36l-35.18,164.41Z"/><path class="cls-1" d="m1190.14,165.89c0,59.35-40.12,104.07-94.2,104.07-46.53,0-76.78-30.91-76.78-77.6,0-59.19,40.11-104.07,94.2-104.07,46.53,0,76.78,30.91,76.78,77.6Zm-40.77,1.15c0-27.13-14.47-44.89-36.99-44.89-30.42,0-52.45,29.76-52.45,69.22,0,27.13,14.47,44.88,36.99,44.88,30.09,0,52.45-30.09,52.45-69.22Z"/><path class="cls-1" d="m1366.52,150.6q0,2.96-.16,3.95h-38.64c-.49-17.92-13.15-31.73-34.86-31.73-29.76,0-50.64,28.61-50.64,69.71,0,26.63,14.14,43.07,35.51,43.07,19.73,0,34.36-11.51,40.28-29.76h38.96c-7.23,37.16-39.95,64.12-80.4,64.12-48.01,0-74.97-30.91-74.97-75.79,0-61.65,37.15-105.88,92.4-105.88,45.87,0,72.5,28.93,72.5,62.31Z"/><path class="cls-1" d="m1453.46,88.45c40.12,0,68.23,22.69,68.89,55.24h-37.15c-1.15-14.63-14.31-25.15-32.23-25.15-18.91,0-30.42,8.55-30.42,20.55,0,10.36,6.58,15.62,26.64,22.03l16.6,5.26c31.9,10.36,44.72,23.84,44.72,47.02,0,33.37-29.92,56.56-72.5,56.56s-73.49-23.35-74.64-56.56h39.13c1.97,15.45,15.46,26.31,36.99,26.31,18.09,0,30.91-9.7,30.91-22.53,0-9.37-5.59-13.81-25.48-20.06l-15.45-4.93c-31.9-10.36-45.71-25.32-45.71-49.32,0-32.23,27.79-54.42,69.71-54.42Z"/></g></svg>