<?xml version="1.0" encoding="UTF-8"?><svg xmlns="http://www.w3.org/2000/svg" viewBox="0 0 1099 291.49"><defs><style>.d{fill:#fff;}</style></defs><g id="a"/><g id="b"><g id="c"><g><path d="M0,1.67L307.98,3.88V30.21h-44.05v53.15h40.35v25.22h-40.35v72.84L0,179.21V1.67Z"/><path d="M343.05,177.98c-6.81-3.77-12.18-9.21-16.12-16.3-3.94-7.09-5.91-15.64-5.91-25.65V3.88h30.14V136.39c0,4.43,.68,8.14,2.03,11.13,1.35,3,3.24,5.29,5.66,6.89,2.42,1.6,5.19,2.4,8.3,2.4,3.28,0,6.13-.8,8.55-2.4,2.42-1.6,4.29-3.89,5.6-6.89,1.31-2.99,1.97-6.71,1.97-11.13V3.88h30.14V136.02c0,9.93-1.95,18.46-5.84,25.59-3.9,7.14-9.29,12.59-16.18,16.36-6.89,3.77-14.97,5.66-24.24,5.66s-17.31-1.89-24.11-5.66Z"/><path d="M431.02,3.88h31.25l45.77,152.32-18.82-29.53h9.84l-.37-122.79h26.08V181.42h-30.76L447.99,28.98l19.07,29.65h-10.21l.49,122.79h-26.33V3.88Z"/><path d="M565.06,177.42c-7.01-4.22-12.41-9.98-16.18-17.29-3.77-7.3-5.66-15.91-5.66-25.84V50.76c0-9.76,1.91-18.31,5.72-25.65,3.81-7.34,9.25-13.1,16.3-17.29,7.05-4.18,15.17-6.27,24.36-6.27s17.04,1.97,23.81,5.91c6.77,3.94,12.06,9.5,15.87,16.67,3.81,7.18,5.8,15.73,5.97,25.65l.12,20.05h-29.53v-22.15c-.08-3.85-.76-7.24-2.03-10.15-1.27-2.91-3.08-5.17-5.41-6.77s-5.15-2.4-8.43-2.4c-3.45,0-6.38,.88-8.8,2.65-2.42,1.76-4.29,4.14-5.6,7.14-1.31,3-1.97,6.46-1.97,10.4v88.34c0,3.94,.66,7.42,1.97,10.46,1.31,3.04,3.22,5.39,5.72,7.07,2.5,1.68,5.43,2.52,8.8,2.52s6.03-.78,8.24-2.34c2.21-1.56,3.98-3.77,5.29-6.64,1.31-2.87,2.01-6.28,2.09-10.21l-.12-22.39h29.65v20.42c-.17,9.68-2.13,18.13-5.91,25.34-3.77,7.22-9.06,12.8-15.87,16.73-6.81,3.94-14.72,5.91-23.75,5.91s-17.65-2.11-24.67-6.34Z"/><path d="M670.68,30.21h-27.68V3.88h85.51V30.21h-27.93V181.42h-29.9V30.21Z"/><path d="M740.32,3.88h30.14V181.42h-30.14V3.88Z"/><path d="M810.82,177.61c-7.3-4.02-12.94-9.78-16.92-17.29-3.98-7.5-5.97-16.34-5.97-26.51V51.62c0-10.25,2.01-19.11,6.03-26.58,4.02-7.46,9.66-13.23,16.92-17.29,7.26-4.06,15.52-6.09,24.79-6.09s17.63,2.03,24.85,6.09c7.22,4.06,12.86,9.82,16.92,17.29,4.06,7.46,6.09,16.32,6.09,26.58v82.19c0,10.09-2.03,18.89-6.09,26.39-4.06,7.51-9.7,13.29-16.92,17.35-7.22,4.06-15.5,6.09-24.85,6.09s-17.55-2.01-24.85-6.03Zm34.08-23.25c2.62-1.64,4.59-4.02,5.91-7.14,1.31-3.12,1.97-6.85,1.97-11.2V49.28c0-4.35-.66-8.06-1.97-11.13-1.31-3.08-3.3-5.45-5.97-7.14-2.67-1.68-5.72-2.52-9.17-2.52s-6.58,.84-9.17,2.52c-2.58,1.68-4.57,4.06-5.97,7.14-1.4,3.08-2.09,6.79-2.09,11.13v86.74c0,4.27,.7,7.96,2.09,11.07,1.39,3.12,3.4,5.52,6.03,7.2,2.62,1.68,5.66,2.52,9.1,2.52s6.6-.82,9.23-2.46Z"/><path d="M900.51,3.88h31.25l45.77,152.32-18.82-29.53h9.84l-.37-122.79h26.08V181.42h-30.76l-46.01-152.44,19.07,29.65h-10.21l.49,122.79h-26.33V3.88Z"/><path d="M1029.94,178.28c-6.64-3.57-11.79-8.63-15.44-15.19-3.65-6.56-5.6-14.48-5.84-23.75l.12-10.95h28.91l.12,12.67c.33,3.61,1.15,6.64,2.46,9.1,1.31,2.46,3.12,4.35,5.41,5.66,2.3,1.31,5.04,1.97,8.24,1.97s5.66-.63,7.88-1.91c2.21-1.27,3.88-3.01,4.98-5.23,1.11-2.21,1.66-4.96,1.66-8.24v-6.27c0-6.23-1.38-11.52-4.12-15.87-2.75-4.35-7.94-9.15-15.56-14.4l-10.09-7.14c-9.27-6.23-16.3-13.06-21.1-20.49-4.8-7.42-7.2-16.79-7.2-28.11v-5.29c.08-8.61,1.93-16.16,5.54-22.64,3.61-6.48,8.71-11.52,15.32-15.13,6.6-3.61,14.25-5.41,22.95-5.41,9.19,0,16.9,1.78,23.13,5.35,6.23,3.57,11.03,8.63,14.39,15.19,3.36,6.56,5.17,14.35,5.41,23.38l.12,11.44h-28.91l-.12-12.67c-.17-3.61-.8-6.64-1.91-9.1-1.11-2.46-2.67-4.37-4.67-5.72-2.01-1.35-4.45-2.03-7.32-2.03s-5.35,.6-7.44,1.78c-2.09,1.19-3.67,2.87-4.74,5.04-1.07,2.17-1.6,4.78-1.6,7.81v5.91c0,5.83,1.39,10.89,4.18,15.19,2.79,4.31,7.42,8.76,13.9,13.35l10.46,7.01c7.05,4.84,12.77,9.68,17.16,14.52,4.39,4.84,7.59,10.07,9.6,15.69,2.01,5.62,3.01,12.24,3.01,19.87v5.78c0,9.02-1.84,16.84-5.54,23.44-3.69,6.6-8.88,11.71-15.56,15.32-6.69,3.61-14.58,5.41-23.68,5.41s-17.47-1.78-24.11-5.35Z"/><path d="M888.15,288.37c-1.74-1.9-2.61-4.19-2.61-6.86s.87-4.96,2.61-6.86c1.74-1.9,3.95-2.85,6.62-2.85s4.85,.95,6.69,2.85,2.75,4.19,2.75,6.86-.92,4.96-2.75,6.86c-1.83,1.9-4.06,2.85-6.69,2.85s-4.88-.95-6.62-2.85Z"/><path d="M920.47,287.99c-3.87-2.33-6.85-5.51-8.93-9.54-2.08-4.03-3.12-8.78-3.12-14.26v-46.1c0-5.39,1.05-10.1,3.16-14.16,2.1-4.05,5.1-7.23,9-9.54,3.89-2.31,8.37-3.46,13.44-3.46s9.4,1.09,13.14,3.26c3.73,2.17,6.65,5.24,8.76,9.2,2.1,3.96,3.2,8.68,3.29,14.16l.07,11.07h-16.3v-12.22c-.05-2.13-.42-3.99-1.12-5.6-.7-1.61-1.7-2.85-2.99-3.73-1.29-.88-2.84-1.32-4.65-1.32-1.9,0-3.52,.49-4.85,1.46-1.34,.97-2.37,2.29-3.09,3.94-.72,1.65-1.09,3.56-1.09,5.74v48.75c0,2.17,.36,4.1,1.09,5.77,.72,1.67,1.78,2.98,3.16,3.9,1.38,.93,3,1.39,4.85,1.39s3.33-.43,4.55-1.29c1.22-.86,2.19-2.08,2.92-3.67,.72-1.58,1.11-3.46,1.15-5.64l-.07-12.36h16.36v11.27c-.09,5.34-1.18,10-3.26,13.99-2.08,3.98-5,7.06-8.76,9.23-3.76,2.17-8.13,3.26-13.1,3.26s-9.74-1.17-13.61-3.5Z"/><path d="M980.59,288.1c-4.03-2.22-7.14-5.4-9.34-9.54-2.2-4.14-3.29-9.02-3.29-14.63v-45.35c0-5.66,1.11-10.55,3.33-14.67,2.22-4.12,5.33-7.3,9.34-9.54,4.01-2.24,8.57-3.36,13.68-3.36s9.73,1.12,13.71,3.36c3.98,2.24,7.1,5.42,9.34,9.54,2.24,4.12,3.36,9.01,3.36,14.67v45.35c0,5.57-1.12,10.42-3.36,14.56-2.24,4.14-5.35,7.33-9.34,9.57-3.98,2.24-8.55,3.36-13.71,3.36s-9.69-1.11-13.72-3.33Zm18.81-12.83c1.45-.9,2.53-2.22,3.26-3.94,.72-1.72,1.09-3.78,1.09-6.18v-47.87c0-2.4-.36-4.45-1.09-6.14-.72-1.7-1.82-3.01-3.29-3.94-1.47-.93-3.16-1.39-5.06-1.39s-3.63,.46-5.06,1.39c-1.43,.93-2.52,2.24-3.29,3.94-.77,1.7-1.15,3.75-1.15,6.14v47.87c0,2.35,.38,4.39,1.15,6.11,.77,1.72,1.88,3.04,3.33,3.97,1.45,.93,3.12,1.39,5.02,1.39s3.64-.45,5.09-1.36Z"/><path d="M1030.09,192.23h22.47l11.81,73.73h.41l11.75-73.73h22.47v97.97h-14.46l.07-73.94h-7.4l10.93-21.93-16.23,95.87h-14.6l-16.3-95.87,11.07,21.93h-7.47l.07,73.94h-14.6v-97.97Z"/><path class="d" d="M9.84,1.29l40.61,.29,21.52,134.32h.74L94.06,1.89l40.66,.39V180.93h-26.21l.12-135.09h-13.41L115.04,6.09l-29.53,174.44-26.24-.19L29.65,6.09l20.05,39.74h-13.53l.12,133.98H9.84V1.29Z"/><path class="d" d="M168.33,175.88c-7.01-4.22-12.41-9.98-16.18-17.29-3.77-7.3-5.66-15.91-5.66-25.84V49.21c0-9.76,1.91-18.31,5.72-25.65,3.81-7.34,9.25-13.1,16.3-17.29,7.05-4.18,15.17-6.27,24.36-6.27s17.04,1.97,23.81,5.91c6.77,3.94,12.06,9.5,15.87,16.67,3.81,7.18,5.8,15.73,5.97,25.65l.12,20.05h-29.53v-22.15c-.08-3.85-.76-7.24-2.03-10.15-1.27-2.91-3.08-5.17-5.41-6.77-2.34-1.6-5.15-2.4-8.43-2.4-3.45,0-6.38,.88-8.8,2.65-2.42,1.76-4.29,4.14-5.6,7.14-1.31,3-1.97,6.46-1.97,10.4v88.34c0,3.94,.66,7.42,1.97,10.46,1.31,3.04,3.22,5.39,5.72,7.07,2.5,1.68,5.43,2.52,8.8,2.52s6.03-.78,8.24-2.34c2.21-1.56,3.98-3.77,5.29-6.64,1.31-2.87,2.01-6.28,2.09-10.21l-.12-22.39h29.65v20.42c-.17,9.68-2.13,18.13-5.91,25.34-3.77,7.22-9.06,12.8-15.87,16.73-6.81,3.94-14.72,5.91-23.75,5.91s-17.66-2.11-24.67-6.34Z"/></g></g></g></svg>