<?xml version="1.0" encoding="UTF-8"?><svg id="Layer_2" xmlns="http://www.w3.org/2000/svg" viewBox="0 0 1293.7 194.61"><defs><style>.cls-1{fill:#d32d2d;}</style></defs><g id="Layer_1-2"><path class="cls-1" d="m300.46,125.6l-39.6-97.68c-.41-1.01-1.39-1.67-2.48-1.67h-24.55c-1.48,0-2.67,1.2-2.67,2.67v136.76c0,1.48,1.2,2.67,2.67,2.67h19.34c1.48,0,2.67-1.2,2.67-2.67v-75.35c0-2.93,4.04-3.72,5.14-1.01l31.6,77.37c.41,1,1.39,1.66,2.47,1.66h15.73c1.09,0,2.06-.66,2.47-1.66l31.6-77.37c1.11-2.71,5.14-1.92,5.14,1.01v75.35c0,1.48,1.2,2.67,2.67,2.67h19.34c1.48,0,2.67-1.2,2.67-2.67V28.92c0-1.48-1.2-2.67-2.67-2.67h-24.45c-1.09,0-2.07.66-2.47,1.67l-39.68,97.68c-.9,2.22-4.05,2.22-4.95,0Z"/><path class="cls-1" d="m484.22,121.62c-4.81,16.29-16.34,24.91-33.36,24.91-23.71,0-39.03-19.34-39.03-49.36s14.96-49.08,39.03-49.08c16.71,0,28.76,8.69,33.08,23.87l.57,1.9c.34,1.13,1.38,1.9,2.56,1.9h21.04c1.71,0,2.98-1.58,2.61-3.25l-.17-.77c-4.55-28.57-28.52-47.76-59.68-47.76-19.83,0-36.5,6.87-48.22,19.86-11.68,12.95-17.85,31.39-17.85,53.42,0,44.57,25.94,73.37,66.08,73.37,31.25,0,55.26-19.15,59.78-47.66,0-.06.02-.12.02-.19l.1-1c.16-1.57-1.08-2.94-2.66-2.94h-21.04c-1.15,0-2.17.74-2.54,1.83l-.31.94Z"/><path class="cls-1" d="m522.5,168.36h21.23c1.48,0,2.67-1.2,2.67-2.67v-51.9c0-1.48,1.2-2.67,2.67-2.67h53.42c1.48,0,2.67-1.2,2.67-2.67v-17.91c0-1.48-1.2-2.67-2.67-2.67h-53.42c-1.48,0-2.67-1.2-2.67-2.67v-32.63c0-1.48,1.2-2.67,2.67-2.67h58.82c1.48,0,2.67-1.2,2.67-2.67v-18.29c0-1.48-1.2-2.67-2.67-2.67h-85.39c-1.48,0-2.67,1.2-2.67,2.67v136.76c0,1.48,1.2,2.67,2.67,2.67Z"/><path class="cls-1" d="m681.32,124.18c0,14.09-8.25,23.2-21.02,23.2s-18.56-6.78-18.56-20.74v-60.66c0-1.48-1.2-2.67-2.67-2.67h-20.47c-1.48,0-2.67,1.2-2.67,2.67v64.64c0,24.88,13.86,39.73,37.08,39.73,9.52,0,17.69-2.62,23.97-7.54,1.77-1.39,4.35-.19,4.35,2.05v.83c0,1.48,1.2,2.67,2.67,2.67h20.57c1.48,0,2.67-1.2,2.67-2.67v-99.71c0-1.48-1.2-2.67-2.67-2.67h-20.57c-1.48,0-2.67,1.2-2.67,2.67v58.19Z"/><path class="cls-1" d="m771.36,61.41c-9.54,0-17.72,2.61-23.99,7.52-1.76,1.38-4.33.19-4.33-2.05v-.91c0-1.48-1.2-2.67-2.67-2.67h-20.47c-1.48,0-2.67,1.2-2.67,2.67v99.71c0,1.48,1.2,2.67,2.67,2.67h20.47c1.48,0,2.67-1.2,2.67-2.67v-58.1c0-14.15,8.25-23.3,21.02-23.3s18.56,6.78,18.56,20.74v60.66c0,1.48,1.2,2.67,2.67,2.67h20.57c1.48,0,2.67-1.2,2.67-2.67v-64.54c0-24.88-13.9-39.73-37.17-39.73Z"/><path class="cls-1" d="m884.08,131.78c-.01.11-.03.23-.06.34-2.4,10-9.84,15.73-20.45,15.73-14.6,0-23.68-12.23-23.68-32.02s9.04-31.92,23.58-31.92c10.62,0,18.29,5.95,20.53,15.98l.19.76c.3,1.19,1.37,2.02,2.59,2.02h19.53c1.63,0,2.88-1.44,2.64-3.05l-.09-.6c-2.05-22.15-20.78-37.62-45.59-37.62-30.18,0-49.68,21.29-49.68,54.33s19.61,54.61,49.96,54.61c24.36,0,43.07-15.52,45.49-37.65l.09-.67c.23-1.61-1.02-3.05-2.64-3.05h-19.71c-1.35,0-2.48,1-2.65,2.34l-.06.45Z"/><path class="cls-1" d="m942.88,37.34h-20.95c-1.48,0-2.67,1.2-2.67,2.67v20.63c0,1.48-1.2,2.67-2.67,2.67h-8.97c-1.48,0-2.67,1.2-2.67,2.67v16.3c0,1.48,1.2,2.67,2.67,2.67h8.97c1.48,0,2.67,1.2,2.67,2.67v51.81c0,21.09,10.12,30.91,31.86,30.91,4.61,0,8.78-.55,10.85-.89h0c1.3-.21,2.25-1.32,2.25-2.64v-15.83c0-1.61-1.41-2.85-3-2.65h0c-.36.04-.72.09-1.1.13-7.78.84-14.57-5.27-14.57-13.1v-47.75c0-1.48,1.2-2.67,2.67-2.67h13.33c1.48,0,2.67-1.2,2.67-2.67v-16.3c0-1.48-1.2-2.67-2.67-2.67h-13.33c-1.48,0-2.67-1.2-2.67-2.67v-20.63c0-1.48-1.2-2.67-2.67-2.67Z"/><path class="cls-1" d="m984.66,24.36c-8.06,0-14.61,6.51-14.61,14.52s6.56,14.42,14.61,14.42,14.61-6.47,14.61-14.42-6.42-14.52-14.61-14.52Z"/><rect class="cls-1" x="971.75" y="63.31" width="25.82" height="105.05" rx="2.67" ry="2.67"/><path class="cls-1" d="m1053.93,61.41c-30.3,0-49.87,21.29-49.87,54.23v.19c0,33.12,19.61,54.51,49.97,54.51s49.97-21.4,49.97-54.51v-.19c0-32.94-19.65-54.23-50.06-54.23Zm-23.58,54.23c0-19.57,9.04-31.73,23.58-31.73s23.77,11.86,23.77,31.73v.19c0,20.05-8.81,32.02-23.58,32.02s-23.77-11.97-23.77-32.02v-.19Z"/><path class="cls-1" d="m1163.76,61.41c-9.54,0-17.72,2.61-23.99,7.52-1.76,1.38-4.33.19-4.33-2.05v-.91c0-1.48-1.2-2.67-2.67-2.67h-20.47c-1.48,0-2.67,1.2-2.67,2.67v99.71c0,1.48,1.2,2.67,2.67,2.67h20.47c1.48,0,2.67-1.2,2.67-2.67v-58.1c0-14.15,8.25-23.3,21.02-23.3s18.56,6.78,18.56,20.74v60.66c0,1.48,1.2,2.67,2.67,2.67h20.57c1.48,0,2.67-1.2,2.67-2.67v-64.54c0-24.88-13.9-39.73-37.17-39.73Z"/><path class="cls-1" d="m1263.48,107.16l-16.18-3.69c-11.22-2.68-12.73-6.71-12.73-10.38,0-6.48,5.84-10.5,15.24-10.5s15.85,4.55,16.97,12.49l.1.66c.19,1.32,1.32,2.29,2.64,2.29h19.24c1.56,0,2.79-1.34,2.66-2.89l-.09-1.08c-1.2-19.53-17.89-32.65-41.53-32.65s-41.15,13.45-41.15,32.81c0,15.64,10.23,25.92,30.42,30.56l16.27,3.69c11.32,2.7,12.26,6.32,12.26,10.2,0,6.58-6.37,10.5-17.04,10.5s-16.98-4.08-18.71-12.45l-.19-.95c-.25-1.25-1.35-2.15-2.62-2.15h-20.28c-1.59,0-2.83,1.39-2.65,2.97l.1.86c2.36,20.59,18.91,32.89,44.26,32.89s43.24-13.73,43.24-33.47c0-15.9-9.04-24.78-30.23-29.71Z"/><path class="cls-1" d="m77.25,128.47l.13-.13c3.57-3.5,3.6-9.25.06-12.79l-11.89-11.89c-3.5-3.5-3.52-9.17-.03-12.69l11.52-11.65c3.49-3.52,3.47-9.21-.05-12.7h0c-3.52-3.51-9.2-3.5-12.71.01l-24.35,24.37c-3.51,3.51-3.51,9.2,0,12.72l24.66,24.68c3.49,3.49,9.14,3.52,12.66.07Zm52.77-.14l24.6-24.64c3.51-3.51,3.51-9.2,0-12.71l-24.6-24.64c-3.51-3.52-9.21-3.52-12.73,0h0c-3.51,3.51-3.51,9.21,0,12.72l11.92,11.92c3.51,3.51,3.51,9.21,0,12.72l-11.92,11.92c-3.51,3.51-3.51,9.21,0,12.72h0c3.52,3.52,9.22,3.51,12.73,0ZM20.04,194.61c-5.35,0-10.02-2-14.03-6.01-4.01-4.01-6.01-8.69-6.01-14.03V20.11c0-5.36,2-10.05,6.01-14.08C10.02,2.01,14.7,0,20.04,0h154.46c5.36,0,10.05,2.01,14.08,6.03,4.02,4.02,6.03,8.71,6.03,14.08v154.46c0,5.35-2.01,10.02-6.03,14.03-4.02,4.01-8.71,6.01-14.08,6.01,0,0-154.46,0-154.46,0Zm9-20.04h136.47c4.97,0,9-4.03,9-9V29.1c0-4.97-4.03-9-9-9H29.04c-4.97,0-9,4.03-9,9v136.47c0,4.97,4.03,9,9,9ZM20.04,20.11v154.46V20.11Z"/></g></svg>