<?xml version="1.0" encoding="UTF-8"?><svg id="Layer_2" xmlns="http://www.w3.org/2000/svg" viewBox="0 0 1676.92 236.42"><defs><style>.cls-1{fill:#fa9a4f;}.cls-2{fill:#f7bf73;}.cls-3{fill:#fff;}.cls-4{fill:#fffeae;}.cls-5{fill:#ffa64a;}.cls-6{fill:#ff631a;}.cls-7{fill:#9b000a;}.cls-8{fill:#d63416;}.cls-9{fill:#dd1616;}</style></defs><g id="Layer_1-2"><path class="cls-6" d="m15.52,66.85l87.66,51.26,87.81-51.41L103.25,15.37,15.52,66.85Z"/><path class="cls-6" d="m103.25,221.01l87.88-51.48-.15-102.82-87.81,51.48.07,102.82Z"/><path class="cls-9" d="m15.3,169.67l.22-102.82,87.66,51.26v102.96L15.3,169.67Z"/><path class="cls-5" d="m75.92,31.4l-33.14,19.36,87.74,51.34.29,32.12,32.77-19.22v-32.27L75.92,31.4Z"/><path class="cls-8" d="m180.11,124.72l-10.88,6.38v12.83l10.88-6.38v-12.83Zm11.02,32.05l-87.95,51.48v12.76l87.95-51.34v-12.91Z"/><path class="cls-7" d="m20.81,121.45v12.91l16.39,9.57v-12.83l-16.39-9.64Zm0,19.36v12.83l16.39,9.57v-12.91l-16.39-9.5Zm-5.58,16.31l.22,12.62,87.66,51.26v-19.22l-16.39-9.57-.07,6.38L15.23,157.13Zm71.49,35.09v-12.91l-16.53-9.57v12.76l16.53,9.72Z"/><path class="cls-1" d="m103.25,226.77c-1,0-2.01-.26-2.91-.79L12.39,174.65c-1.77-1.03-2.86-2.93-2.86-4.99l.15-102.82c0-2.04,1.09-3.93,2.85-4.96L100.26,10.4c.88-.52,1.89-.79,2.92-.79h.07c1.02,0,2.03.27,2.91.79l87.74,51.34c1.76,1.03,2.85,2.92,2.85,4.97l.15,102.82c0,2.05-1.08,3.95-2.85,4.98l-87.88,51.48c-.9.53-1.91.79-2.91.79Zm-82.19-60.41l82.18,47.97,82.12-48.1-.14-96.21L103.22,22.03,21.2,70.16l-.14,96.21Z"/><path class="cls-2" d="m103.18,121.06c-.98,0-1.94-.51-2.47-1.42-.8-1.36-.34-3.12,1.02-3.92l87.81-51.48c1.36-.8,3.12-.34,3.92,1.02.8,1.36.34,3.12-1.02,3.92l-87.81,51.48c-.46.27-.95.39-1.45.39Z"/><path class="cls-4" d="m127.76,100.43l2.83,1.67v3.34l33.06-19.36v-3.34l-2.9-1.67-32.99,19.36Z"/><path class="cls-4" d="m103.18,223.87c-1.58,0-2.86-1.28-2.86-2.86v-101.25L14.07,69.33c-1.37-.8-1.83-2.55-1.03-3.92.8-1.37,2.55-1.83,3.92-1.03l87.66,51.26c.88.51,1.42,1.45,1.42,2.47v102.89c0,1.58-1.28,2.86-2.86,2.86Z"/><path d="m103.18.07c-2.73,0-5.4.73-7.76,2.1L7.69,53.66C3.02,56.42.16,61.43.15,66.85L0,169.6c-.01,5.45,2.85,10.49,7.54,13.27l87.95,51.48c4.81,2.78,10.74,2.75,15.52-.07l87.88-51.48c4.69-2.74,7.59-7.76,7.61-13.2l-.15-102.89c-.03-5.44-2.92-10.45-7.61-13.2L111.01,2.18c-2.37-1.41-5.07-2.17-7.83-2.18v.07Zm0,15.3l87.81,51.34.15,102.89-87.88,51.48L15.3,169.6l.22-102.75L103.18,15.37Z"/><path class="cls-3" d="m246.41,47.56h61.93c41.71,0,65.13,24.39,65.13,67.93v.19c0,46.35-22.93,71.51-65.13,71.51h-61.93V47.56Zm53.9,107.12c20.52,0,31.35-12.58,31.35-38.22v-.19c0-23.42-11.61-36.19-31.35-36.19h-12.87v74.61h12.87Z"/><path class="cls-3" d="m383.04,155.75v-.19c0-19.74,15.77-31.35,44.61-33.1l21.48-1.26v-8.03c0-5.61-4.65-9.1-12.29-9.1s-12.58,2.52-14.42,7.06l-.19.48h-35.42l.1-1.26c1.65-21,21.1-34.64,52.35-34.64s48.77,13.64,48.77,37.45v74.03h-38.9v-12.77h-1.94c-4.16,8.61-15.77,14.32-29.52,14.32-20.81,0-34.64-13.16-34.64-33Zm50.13,6.29c8.9,0,15.97-5.9,15.97-13.45v-6.29l-15.1.97c-8.32.58-13.16,4.06-13.16,9.29v.19c0,5.61,4.74,9.29,12.29,9.29Z"/><path class="cls-3" d="m516.67,156.91v-49.84h-16.35v-28.64h16.35v-23.9h39.68v23.9h21.19v28.64h-21.19v41.03c0,6.87,3.97,10.45,12.29,10.45,4.26,0,6.58-.19,8.9-.48v27.68c-3.77.77-10.94,1.45-18.48,1.45-30.39,0-42.39-8.81-42.39-30.29Z"/><path class="cls-3" d="m589.04,155.75v-.19c0-19.74,15.77-31.35,44.61-33.1l21.48-1.26v-8.03c0-5.61-4.65-9.1-12.29-9.1s-12.58,2.52-14.42,7.06l-.19.48h-35.42l.1-1.26c1.65-21,21.1-34.64,52.35-34.64s48.77,13.64,48.77,37.45v74.03h-38.9v-12.77h-1.94c-4.16,8.61-15.77,14.32-29.52,14.32-20.81,0-34.64-13.16-34.64-33Zm50.13,6.29c8.9,0,15.97-5.9,15.97-13.45v-6.29l-15.1.97c-8.32.58-13.16,4.06-13.16,9.29v.19c0,5.61,4.74,9.29,12.29,9.29Z"/><path class="cls-3" d="m713.67,78.43h39.68v16.35h1.94c4.65-11.32,15.68-17.9,31.26-17.9,26.81,0,42.77,20.32,42.77,55.84v.19c0,35.81-15.29,55.84-42.77,55.84-14.9,0-26.23-7.06-31.26-19.16h-1.94v53.42h-39.68V78.43Zm75.39,54.48v-.19c0-14.9-7.06-23.9-17.9-23.9s-18,8.81-18,23.81v.19c0,15,7.26,24,18,24s17.9-9.19,17.9-23.9Z"/><path class="cls-3" d="m838.97,155.75v-.19c0-19.74,15.77-31.35,44.61-33.1l21.48-1.26v-8.03c0-5.61-4.65-9.1-12.29-9.1s-12.58,2.52-14.42,7.06l-.19.48h-35.42l.1-1.26c1.64-21,21.1-34.64,52.35-34.64s48.77,13.64,48.77,37.45v74.03h-38.9v-12.77h-1.94c-4.16,8.61-15.77,14.32-29.52,14.32-20.81,0-34.64-13.16-34.64-33Zm50.13,6.29c8.9,0,15.97-5.9,15.97-13.45v-6.29l-15.1.97c-8.32.58-13.16,4.06-13.16,9.29v.19c0,5.61,4.74,9.29,12.29,9.29Z"/><path class="cls-3" d="m958.28,132.81v-.19c0-37.64,19.06-56.9,56.51-56.9,31.16,0,49.55,16.16,51.48,45.1h-35.9l-.1-.1c-1.16-10.35-6.1-15.58-15.19-15.58-11.61,0-16.55,8.42-16.55,27.48v.19c0,19.26,4.94,27.68,16.55,27.68,9.1,0,14.03-4.84,15.1-14.71h.19l35.71-.1.1.19c-1.74,27.58-20.9,44.03-51.39,44.03-37.45,0-56.51-19.26-56.51-57.1Z"/><path class="cls-3" d="m1081.55,38.37h39.68v78.67h1.94l26.03-38.61h43.74l-36.39,46.84,38.9,61.93h-45.58l-23.13-38.81-5.52,6.87v31.93h-39.68V38.37Z"/><path class="cls-3" d="m1243.52,47.56h42.58l15.77,86.13h1.94l19.64-86.13h31.74l20.61,86.13h1.94l15.39-86.13h42.19l-36,139.64h-38.42l-20.61-77.9h-1.94l-20.13,77.9h-38.71l-36-139.64Z"/><path class="cls-3" d="m1450.79,46.11c0-11.13,9.19-19.84,20.22-19.84s20.23,8.71,20.23,19.84-9.1,19.74-20.23,19.74-20.22-8.71-20.22-19.74Zm.39,32.32h39.68v108.77h-39.68v-108.77Z"/><path class="cls-3" d="m1512.03,38.37h39.68v78.67h1.94l26.03-38.61h43.74l-36.39,46.84,38.9,61.93h-45.58l-23.13-38.81-5.52,6.87v31.93h-39.68V38.37Z"/><path class="cls-3" d="m1636.47,46.11c0-11.13,9.19-19.84,20.22-19.84s20.23,8.71,20.23,19.84-9.1,19.74-20.23,19.74-20.22-8.71-20.22-19.74Zm.39,32.32h39.68v108.77h-39.68v-108.77Z"/></g></svg>