<?xml version="1.0" encoding="UTF-8"?><svg id="Layer_2" xmlns="http://www.w3.org/2000/svg" viewBox="0 0 1533.86 171.35"><defs><style>.cls-1{fill:#fff;}</style></defs><g id="Layer_1-2"><path d="m1533.86,106.8l-.38-18.57c-.54-26.56-22.87-45.83-53.1-45.83-16.79,0-31.07,5.65-40.65,15.03-9.87-9.41-23.97-15.11-40.12-15.11-18.82,0-35.07,7.54-46.61,20.29-10.11-12.71-25.89-20.29-44.91-20.29-14.07,0-26.84,4.27-37.31,11.74-8.98-25.64-32.56-41.64-64.2-41.64h-54.48l-8.96,42.26c-10.71-10.2-26.52-16.35-44.88-16.35-19.42,0-35.39,5.74-46.01,15.63-8.2-9.73-20.86-15.63-35.83-15.63-5.61,0-11.06.8-16.19,2.33h-58.52l-3.28,15.4c-11.17-11.11-27.15-17.73-45.75-17.73-14.46,0-27.57,3.58-38.57,9.98l1.03-4.83c.86-2.97,1.31-6.11,1.31-9.35,0-18.81-15.45-34.12-34.45-34.12-14.49,0-26.89,8.92-31.98,21.49h-68.43l-4.66,21.91h-13.55l-1.24,5.6c-10.01-6.75-22.73-10.68-36.91-10.68-19.35,0-35.77,6.42-47.87,17.72-8.1-10.96-21.45-17.72-37.46-17.72-5.61,0-11.06.8-16.19,2.33h-135.93l6.05-28.24h-121.64l-4.53,21.3c-12.3-14.43-31.44-23.38-53.74-23.38-19.19,0-36.09,4.9-49.84,13.75l2.48-11.67h-77.43l-19.52,36.28-4.77-36.28H33.21L0,169.02h173.23l5.3-24.92c12.5,16.84,33.15,27,58.38,27,16.41,0,31.44-4.15,43.94-11.49l-2,9.4h74.07l9-42.56h20.81c.19,26.45,19.46,44.9,47.02,44.9,5.53,0,10.85-.8,15.82-2.33h163.5l2.89-13.77c10.79,10.17,26.09,16.1,44.09,16.1,19.98,0,37.35-7.6,49.2-20.29,2.83,4.45,6.7,8.28,11.54,11.31,8.46,5.3,19.73,7.98,33.51,7.98,1.73,0,9.97-.07,16.23-1.33h61.86l4.18-19.63c11.18,13.65,28.74,21.96,49.59,21.96,12.19,0,23.41-2.55,33.23-7.18l-1.03,4.85h131.22l2-9.51c10.8,7.55,25.27,11.84,42.16,11.84,11.14,0,21.16-1.84,29.74-5.2l-.61,2.87h73.37c22.73,0,43.26-8.6,58.17-24.24,9.66,16.11,27.14,25.99,48.85,25.99,18.7,0,35.11-7.55,46.88-20.12,9.85,12.68,25.44,20.12,44.64,20.12,15.43,0,29.45-5.46,40.03-14.74,9.98,9.27,24.57,14.74,41.75,14.74,31.83,0,54.94-19.71,54.94-46.86,0-6.72-1.36-12.37-3.57-17.11h9.93ZM787.71,40.65l.27-1.27c.07.42.1.85.19,1.27h-.45Zm603.86,72.68c0-4.79-.06-.97.45,3.59,0,0-.01,0-.02,0-.21-.71-.43-1.89-.43-3.6Z"/><polygon class="cls-1" points="138.05 26.98 97.49 102.36 96.82 102.36 86.91 26.98 46.01 26.98 20.53 147.17 51.68 147.17 67.75 71.54 68.42 71.54 78.41 147.17 98.74 147.17 140.55 71.54 141.55 71.54 125.31 147.17 156.54 147.17 182.11 26.98 138.05 26.98"/><path class="cls-1" d="m237.47,120.51c-11.99,0-19.32-9.08-19.32-23.82,0-25.4,12.49-43.4,30.15-43.4,10.83,0,19.16,8.16,19.16,18.74,0,2.5,0,2.83-.08,3.33h34.23c.25-1.33.42-3.25.42-5.33,0-26.24-20.99-45.14-50.06-45.14-42.81,0-70.22,28.9-70.22,73.96,0,30.57,20.99,50.39,53.22,50.39s57.14-19.32,61.3-48.06h-34.23c-3.5,11.91-12.91,19.32-24.57,19.32Z"/><polygon class="cls-1" points="355.79 54.96 403.35 54.96 409.35 26.98 324.97 26.98 299.4 147.17 336.22 147.17 345.21 104.61 388.11 104.61 393.85 78.12 350.87 78.12 355.79 54.96"/><path class="cls-1" d="m472.86,55.21l-11.16,52.47c-2,9.5-7.75,14.99-15.58,14.99s-12.33-4.5-12.33-12.33c0-1.75.17-3.33.42-4.91l10.75-50.23h-32.98l-11.83,55.64c-.75,3.42-1.17,7.66-1.17,11.58,0,16.49,11.24,27.07,28.82,27.07,12.83,0,23.57-6.41,29.07-17.33h.67l-3.17,14.99h32.07l19.57-91.95h-33.15Z"/><path class="cls-1" d="m577.94,52.88c-12.24,0-23.91,5.75-30.4,16.24h-.67l3-13.91h-31.9l-19.57,91.95h32.82l11.49-53.97c1.83-8.74,8.41-14.66,16.16-14.66,7.16,0,12.24,4.58,12.24,10.99,0,1.75-.17,3.42-.58,5.67l-10.91,51.97h32.73l11.99-57.06c.83-4.08,1.25-7.83,1.25-11.24,0-15.66-10.99-25.99-27.65-25.99Z"/><path class="cls-1" d="m663.27,52.88c-32.23,0-52.14,21.82-52.14,57.14,0,23.99,16.83,39.48,42.98,39.48s44.31-15.74,47.06-39.06h-31.48c-1.75,8.08-6.91,12.83-14.08,12.83s-11.58-5.83-11.58-14.66c0-17.49,7.16-29.49,17.57-29.49,7.08,0,11.49,4.83,11.49,12.49h31.48c.08-.5.08-.92.08-4.5,0-19.66-17.58-34.23-41.4-34.23Z"/><path class="cls-1" d="m757.61,82.12h17.91l5.16-24.15h-17.99l4.66-21.91h-32.98l-4.66,21.91h-13.66l-5.33,24.15h13.74l-7.41,35.57c-.83,4.16-1,7.83-1,10.16,0,13.66,11.83,20.66,32.32,20.66,5.16,0,10.99-.5,13.49-1.17l5-22.66c-.92.33-2.5.5-6,.5-7.58,0-10.66-1.92-10.66-6.66,0-1,.17-2.83.42-3.66l7-32.73Z"/><polygon class="cls-1" points="778.64 147.17 811.71 147.17 831.28 55.21 798.21 55.21 778.64 147.17"/><path class="cls-1" d="m820.04,14.57c-9.08,0-16.24,7.25-16.24,15.91s7.16,15.91,16.24,15.91,16.24-7.25,16.24-15.91-7.16-15.91-16.24-15.91Z"/><path class="cls-1" d="m890.71,52.88c-32.15,0-54.98,22.82-54.98,54.89,0,24.9,17.99,41.73,44.48,41.73,32.15,0,54.97-22.82,54.97-54.89,0-24.9-17.99-41.73-44.48-41.73Zm-9,71.38c-7.49,0-12.49-6.91-12.49-17.16,0-16.66,8.41-28.98,19.82-28.98,7.5,0,12.41,6.83,12.41,17.16,0,16.32-8.58,28.98-19.74,28.98Z"/><path class="cls-1" d="m1014.45,52.88c-12.24,0-23.9,5.75-30.4,16.24h-.67l3-13.91h-31.9l-19.58,91.95h32.82l11.49-53.97c1.83-8.74,8.41-14.66,16.16-14.66,7.16,0,12.24,4.58,12.24,10.99,0,1.75-.17,3.42-.58,5.67l-10.91,51.97h32.73l12-57.06c.83-4.08,1.25-7.83,1.25-11.24,0-15.66-10.99-25.99-27.65-25.99Z"/><path class="cls-1" d="m1095.79,74.54c7.16,0,12,3.83,12.33,9.33h29.49c-.67-18.33-17.49-30.99-41.31-30.99-25.57,0-42.06,12.16-42.06,30.99,0,12.66,8.08,21.32,25.24,27.15l8.33,2.83c8.25,2.83,10.83,4.66,10.83,7.83,0,3.83-3.58,6.08-9.99,6.08-8.41,0-13.99-4.25-14.33-10.41h-31.15c.75,19.74,17.91,32.15,44.64,32.15s43.48-12.41,43.48-31.65c0-12.33-6.66-19.32-24.32-25.32l-10.33-3.5c-8.75-3-11.16-4.66-11.16-8,0-4,4-6.5,10.33-6.5Z"/><path class="cls-1" d="m1204.61,26.98h-39.73l-25.49,120.19h50.89c38.23,0,64.3-29.74,64.3-72.3,0-30.15-19.32-47.89-49.98-47.89Zm-16.74,101.7h-22.91l17.83-83.29h17.41c21.07,0,32.24,11.5,32.24,32.24,0,30.4-18.58,51.06-44.56,51.06Z"/><path class="cls-1" d="m1306.13,56.88c-27.4,0-47.73,22.74-47.73,52.72,0,23.65,15.33,39.31,38.9,39.31,27.4,0,47.73-22.66,47.73-52.72,0-23.66-15.33-39.31-38.9-39.31Zm-8.33,74.96c-11.41,0-18.74-9-18.74-22.74,0-19.99,11.16-35.07,26.57-35.07,11.41,0,18.74,9,18.74,22.74,0,19.82-11.33,35.07-26.57,35.07Z"/><path class="cls-1" d="m1389.41,131.51c-10.83,0-17.99-8.33-17.99-21.82,0-20.82,10.58-35.32,25.65-35.32,10.99,0,17.41,7,17.66,16.08h19.57q.08-.5.08-2c0-16.91-13.49-31.57-36.73-31.57-27.99,0-46.81,22.41-46.81,53.64,0,22.74,13.66,38.4,37.98,38.4,20.49,0,37.07-13.66,40.73-32.48h-19.74c-3,9.25-10.41,15.08-20.41,15.08Z"/><path class="cls-1" d="m1484.68,96.44l-8.41-2.67c-10.16-3.25-13.49-5.91-13.49-11.16,0-6.08,5.83-10.41,15.41-10.41,9.08,0,15.74,5.33,16.33,12.74h18.82c-.33-16.49-14.58-27.99-34.9-27.99s-35.32,11.24-35.32,27.57c0,12.16,7,19.74,23.16,24.99l7.83,2.5c10.08,3.17,12.91,5.41,12.91,10.16,0,6.5-6.5,11.41-15.66,11.41-10.91,0-17.74-5.5-18.74-13.33h-19.82c.58,16.82,15.33,28.65,37.81,28.65s36.73-11.74,36.73-28.65c0-11.74-6.5-18.57-22.66-23.82Z"/></g></svg>