<?xml version="1.0" encoding="UTF-8"?><svg id="Layer_2" xmlns="http://www.w3.org/2000/svg" viewBox="0 0 1561 471.15"><defs><style>.cls-1{fill:#fff;}</style></defs><g id="Layer_1-2"><path d="m1361.19,6.1h-446.33l-13.28,62.42C865.54,26.23,809.44,0,744.09,0c-56.25,0-105.75,14.36-146.06,40.3l7.28-34.2h-226.91l-57.22,106.32-13.98-106.32H97.32L0,465.05h507.67l15.54-73.03c36.63,49.36,97.16,79.13,171.09,79.13,48.08,0,92.12-12.16,128.78-33.66l-5.86,27.56h217.06l26.36-124.73h70.02l-26.45,124.73h215c69.55,0,132.12-27.4,176.18-77.14,42.32-47.78,65.62-114.58,65.62-188.09,0-115.87-80.3-193.71-199.82-193.71Z"/><path class="cls-1" d="m59.61,395.68L134.3,43.45h119.85l29.05,220.9h1.95l118.87-220.9h129.12l-74.94,352.23h-91.54l47.6-221.64h-2.93l-122.54,221.64h-59.56l-29.29-221.64h-1.95l-47.11,221.64H59.61Z"/><path class="cls-1" d="m783.24,175.51c0-31-24.41-54.92-56.14-54.92-51.75,0-88.36,52.73-88.36,127.18,0,43.2,21.48,69.81,56.63,69.81s61.76-21.72,72.01-56.63h100.32c-12.2,84.22-84.46,140.84-179.65,140.84s-155.98-58.09-155.98-147.68c0-132.06,80.31-216.76,205.77-216.76,85.19,0,146.7,55.41,146.7,132.3,0,6.1-.49,11.71-1.22,15.62h-100.32c.24-1.46.24-2.44.24-9.77Z"/><path class="cls-1" d="m876.87,395.68l74.94-352.23h247.27l-17.58,82.01h-139.38l-14.4,67.86h125.96l-16.84,77.62h-125.71l-26.36,124.73h-107.89Z"/><path class="cls-1" d="m1354.94,43.45c89.82,0,146.46,51.99,146.46,140.35,0,124.73-76.4,211.87-188.44,211.87h-149.14l74.69-352.23h116.44Zm-116.19,298.04h67.13c76.16,0,130.59-60.53,130.59-149.63,0-60.78-32.71-94.47-94.47-94.47h-51.01l-52.24,244.1Z"/></g></svg>