<?xml version="1.0" encoding="utf-8"?>
<!-- Generator: Adobe Illustrator 27.6.1, SVG Export Plug-In . SVG Version: 6.00 Build 0)  -->
<svg version="1.1" id="Layer_1" xmlns="http://www.w3.org/2000/svg" xmlns:xlink="http://www.w3.org/1999/xlink" x="0px" y="0px"
	 viewBox="0 0 1041.3 554.1" style="enable-background:new 0 0 1041.3 554.1;" xml:space="preserve">
<style type="text/css">
	.st0{fill:#3F3D56;}
	.st1{opacity:0.45;fill:#FFFFFF;enable-background:new    ;}
	.st2{fill:#FBBEBE;}
	.st3{fill:#FF6161;}
</style>
<g id="Group_24" transform="translate(-440 -263)">
	<g id="Group_23" transform="translate(439.989 262.965)">
		<path id="Path_299" class="st0" d="M961.5,438.3c-1.2,2.5-2.3,5-3.5,7.4c-1.8,3.8-3.6,7.5-5.3,11.1c-0.8,1.6-1.6,3.2-2.3,4.8
			c-8.6,17.6-16.6,33.1-23.5,45.9c-12.6,23.6-37.1,38.4-63.8,38.7l-151.6,1.7h-1.6l-13,0.1l-11.1,0.1l-34.1,0.4h-1.4l-17.4,0.2h-0.5
			l-107,1.2l-95.5,1l-11.1,0.1l-69,0.8h-0.1l-44.8,0.5h-0.5l-141.5,1.5l-42.3,0.5c-3.6,0-7.2-0.1-10.8-0.5l0,0
			c-1.2-0.1-2.4-0.3-3.6-0.5c-19.7-3-37.8-12.8-51.3-27.5c-18.2-20-31.5-43.4-40.4-68.8c-1.3-3.7-2.5-7.4-3.6-11.1
			c-30.8-104.2,6.7-238.5,74.4-328.4c2.8-3.8,5.7-7.4,8.6-11l0.1-0.1c20.8-25.5,44.1-46.8,68.9-62c44-26.9,92.8-34.5,140.7-11.9
			c40.6,19.1,78.5,28.1,115.2,30.6c3.7,0.2,7.4,0.4,11.1,0.5C514.1,66,593.1,35.6,685.8,16c3.7-0.8,7.4-1.6,11.1-2.3
			C763,0.6,836.4-6.3,923.6,8.2c9.1,1.5,18,3.6,26.8,6.4c3.8,1.2,7.6,2.6,11.1,4c41.6,16.9,64.4,48.2,74,87.5
			c0.9,3.6,1.7,7.3,2.4,11.1C1055,211.6,1004.9,345.4,961.5,438.3z"/>
		<path id="Path_300" class="st1" d="M496.7,445.6c-0.4,3.7-1,7.5-1.9,11.1h93.7v-11.1H496.7z M418.4,508.4l11.1-0.1v-27.5
			c-3.8-0.2-7.5-0.3-11.1-0.5V508.4z M185.5,445.6v11.1H384v-11.1H185.5z M1035.2,106h-74V18.5c-3.6-1.4-7.3-2.8-11.1-4V106H696.5
			V13.6c-3.7,0.7-7.4,1.5-11.1,2.3V106H429.5V63.2c-3.7-0.1-7.4-0.3-11.1-0.5V106H162.5V44c-24.8,15.2-48.1,36.5-68.9,62h-0.1v0.1
			c-2.9,3.6-5.8,7.3-8.6,11h8.6v328.4h-83c1.1,3.8,2.3,7.5,3.6,11.1h79.4v93.6c4,1.2,8.1,2.2,12.2,2.8c1.2,0.2,2.4,0.3,3.6,0.5l0,0
			c3.6,0.4,7.2,0.6,10.8,0.5l42.3-0.5v-97h255.9v94.2l11.1-0.1v-94.1h255.9V548l11.1-0.1v-91.2H950v4.8c0.8-1.6,1.5-3.2,2.3-4.8
			c1.8-3.6,3.5-7.3,5.3-11.1c1.2-2.4,2.3-4.9,3.5-7.4v-321h76.4C1036.9,113.4,1036.1,109.7,1035.2,106z M162.5,445.6V117.1h255.9
			v328.4H162.5z M429.5,445.6V117.1h255.9v328.4H429.5z M950,445.6H696.5V117.1H950L950,445.6z"/>
		<path id="Ellipse_111_00000034084344419282448330000007899202091455847066_" class="st2" d="M483.5,533.8"/>
	</g>
</g>
<path class="st3" d="M124.4,554.1v-39.7c0-19.2,10.4-34.9,31.1-47c20.7-12.1,47.9-18.1,81.5-18.1c6.1,0,11.9,0.1,17.5,0.4
	c5.6,0.2,11.1,0.8,16.6,1.6c-4,8.7-7,17.4-9,26.3c-2,8.9-3,18.2-3,27.8v48.6H124.4z M303.9,554.1v-48.6c0-16,4.4-30.6,13.1-43.8
	s21.1-24.8,37-34.8c16-10,35-17.5,57.2-22.4c22.2-5,46.3-7.5,72.2-7.5c26.4,0,50.8,2.5,73,7.5c22.2,5,41.3,12.5,57.2,22.4
	c16,10,28.2,21.6,36.7,34.8c8.5,13.2,12.7,27.8,12.7,43.8v48.6H303.9z M708,554.1v-48.6c0-9.9-0.9-19.2-2.6-28
	c-1.7-8.8-4.6-17.5-8.6-26.1c5.5-0.9,11-1.4,16.6-1.7c5.6-0.2,11.3-0.4,17.1-0.4c33.7,0,60.8,5.9,81.4,17.8
	c20.6,11.9,30.9,27.6,30.9,47.3v39.7H708z M236.3,426.9c-14.2,0-26.5-5.1-36.7-15.4c-10.2-10.3-15.3-22.6-15.3-37
	c0-14.5,5.1-26.8,15.4-37c10.3-10.2,22.6-15.3,37-15.3c14.5,0,26.8,5.1,37,15.3c10.2,10.2,15.3,22.7,15.3,37.4
	c0,14.2-5.1,26.5-15.3,36.7C263.4,421.8,250.9,426.9,236.3,426.9z M730.1,426.9c-14.2,0-26.5-5.1-36.7-15.4
	c-10.2-10.3-15.3-22.6-15.3-37c0-14.5,5.1-26.8,15.4-37c10.3-10.2,22.6-15.3,37-15.3c14.5,0,26.8,5.1,37,15.3s15.3,22.7,15.3,37.4
	c0,14.2-5.1,26.5-15.3,36.7C757.2,421.8,744.8,426.9,730.1,426.9z M483.5,374.6c-24.9,0-46.1-8.7-63.6-26.2
	c-17.5-17.5-26.2-38.7-26.2-63.6c0-25.4,8.7-46.8,26.2-64s38.7-25.8,63.6-25.8c25.4,0,46.8,8.6,64,25.8c17.2,17.2,25.8,38.5,25.8,64
	c0,24.9-8.6,46.1-25.8,63.6C530.3,365.8,508.9,374.6,483.5,374.6z"/>
</svg>
