<?xml version="1.0" encoding="utf-8"?>
<!-- Generator: Adobe Illustrator 27.6.1, SVG Export Plug-In . SVG Version: 6.00 Build 0)  -->
<svg version="1.1" id="Layer_1" xmlns="http://www.w3.org/2000/svg" xmlns:xlink="http://www.w3.org/1999/xlink" x="0px" y="0px"
	 viewBox="0 0 1129 663" style="enable-background:new 0 0 1129 663;" xml:space="preserve">
<style type="text/css">
	.st0{fill:#3F3D56;}
	.st1{opacity:0.2;enable-background:new    ;}
	.st2{fill:#EF6A6A;}
	.st3{fill:#CC4242;}
	.st4{fill:#E32D2D;}
</style>
<ellipse class="st0" cx="569" cy="602.1" rx="542" ry="29"/>
<ellipse class="st1" cx="567.9" cy="593.1" rx="485.1" ry="23.2"/>
<rect x="117.6" y="92.8" class="st0" width="885.8" height="52.7"/>
<path class="st0" d="M117.6,574c0,12.6,10.2,22.9,22.9,22.9c0,0,0,0,0,0h840.1c12.6,0,22.9-10.2,22.9-22.9c0,0,0,0,0,0V119.2H117.6
	V574z"/>
<path class="st0" d="M980.6,55.9H140.5c-12.6,0-22.9,10.2-22.9,22.9v0v40.4h885.8V78.7C1003.4,66.1,993.2,55.9,980.6,55.9
	C980.6,55.9,980.6,55.9,980.6,55.9z"/>
<path class="st1" d="M980.6,55.9H140.5c-12.6,0-22.9,10.2-22.9,22.9v0v40.4h885.8V78.7C1003.4,66.1,993.2,55.9,980.6,55.9
	C980.6,55.9,980.6,55.9,980.6,55.9z"/>
<circle class="st0" cx="170.4" cy="87.5" r="13.7"/>
<circle class="st0" cx="208.3" cy="87.5" r="13.7"/>
<circle class="st0" cx="246.3" cy="87.5" r="13.7"/>
<path class="st2" d="M162.3,157.1h344.1c3.1,0,5.6,2.5,5.6,5.6v395.8c0,3.1-2.5,5.6-5.6,5.6H162.3c-3.1,0-5.6-2.5-5.6-5.6V162.7
	C156.7,159.6,159.2,157.1,162.3,157.1z"/>
<path class="st3" d="M621.1,219.3h287.9c3.2,0,5.8,2.6,5.8,5.8v11.6c0,3.2-2.6,5.8-5.8,5.8H621.1c-3.2,0-5.8-2.6-5.8-5.8v-11.6
	C615.4,221.9,617.9,219.3,621.1,219.3z"/>
<path class="st3" d="M551.5,303.7h427.1c3.2,0,5.8,2.6,5.8,5.8v4.3c0,3.2-2.6,5.8-5.8,5.8H551.5c-3.2,0-5.8-2.6-5.8-5.8v-4.3
	C545.8,306.3,548.3,303.7,551.5,303.7z"/>
<path class="st3" d="M551.5,350.1h427.1c3.2,0,5.8,2.6,5.8,5.8v4.3c0,3.2-2.6,5.8-5.8,5.8H551.5c-3.2,0-5.8-2.6-5.8-5.8v-4.3
	C545.8,352.7,548.3,350.1,551.5,350.1z"/>
<path class="st3" d="M551.5,396.5h427.1c3.2,0,5.8,2.6,5.8,5.8v4.3c0,3.2-2.6,5.8-5.8,5.8H551.5c-3.2,0-5.8-2.6-5.8-5.8v-4.3
	C545.8,399.1,548.3,396.5,551.5,396.5z"/>
<path class="st3" d="M551.5,442.9h427.1c3.2,0,5.8,2.6,5.8,5.8v4.3c0,3.2-2.6,5.8-5.8,5.8H551.5c-3.2,0-5.8-2.6-5.8-5.8v-4.3
	C545.8,445.5,548.3,442.9,551.5,442.9z"/>
<path class="st4" d="M899,514.6h78c4.1,0,7.4,3.3,7.4,7.4v12.6c0,4.1-3.3,7.4-7.4,7.4h-78c-4.1,0-7.4-3.3-7.4-7.4V522
	C891.6,517.9,894.9,514.6,899,514.6z"/>
</svg>
